<?xml version="1.0" standalone="no"?>
<!DOCTYPE svg PUBLIC "-//W3C//DTD SVG 20010904//EN"
 "http://www.w3.org/TR/2001/REC-SVG-20010904/DTD/svg10.dtd">
<svg version="1.0" xmlns="http://www.w3.org/2000/svg"
 width="700.000000pt" height="700.000000pt" viewBox="0 0 700.000000 700.000000"
 preserveAspectRatio="xMidYMid meet">
<metadata>
Created by potrace 1.14, written by Peter Selinger 2001-2017
</metadata>
<g transform="translate(0.000000,700.000000) scale(0.100000,-0.100000)"
fill="#000000" stroke="none">
<path d="M3689 6850 c-1 -3 -3 -14 -4 -25 -3 -22 -11 -73 -20 -119 -20 -102
-63 -183 -166 -311 -218 -272 -303 -483 -250 -617 28 -72 144 -141 251 -148
46 -4 49 -2 42 33 -3 17 -5 75 -5 127 1 110 31 227 88 344 20 39 32 62 29 51
-62 -199 -79 -353 -49 -444 18 -55 63 -111 90 -111 19 0 49 33 113 125 217
310 233 626 48 903 -41 61 -164 203 -167 192z"/>
<path d="M2498 6659 c-79 -109 -138 -280 -143 -419 -10 -230 85 -439 282 -620
65 -60 145 -120 158 -120 23 0 63 73 68 125 10 85 -48 255 -138 405 l-27 45
26 -30 c49 -55 128 -177 156 -239 33 -73 60 -177 60 -230 0 -37 1 -38 28 -32
83 21 179 92 214 160 26 50 20 143 -12 208 -58 114 -194 258 -373 393 -139
106 -206 194 -257 337 l-17 50 -25 -33z"/>
<path d="M4599 6614 c-43 -106 -125 -232 -180 -278 -13 -11 -62 -46 -109 -79
-105 -73 -175 -132 -252 -212 -70 -73 -101 -117 -135 -192 -45 -97 -22 -195
62 -265 41 -35 153 -90 159 -79 3 5 8 29 11 52 8 64 24 116 55 186 34 74 117
197 161 239 33 30 31 20 -7 -31 -61 -83 -123 -238 -131 -327 -5 -55 -2 -73 16
-111 12 -25 29 -48 37 -51 24 -9 129 68 225 163 163 162 247 336 251 519 3
136 -29 269 -97 400 -51 101 -52 101 -66 66z"/>
<path d="M1627 6239 c-65 -214 -49 -440 43 -605 92 -163 265 -306 475 -391 66
-27 82 -30 93 -19 19 19 33 85 25 126 -15 88 -104 222 -220 330 -68 64 -54 65
27 2 128 -100 223 -216 267 -322 12 -30 29 -56 37 -58 20 -4 138 114 159 160
80 172 -100 361 -494 518 -130 52 -152 64 -216 111 -48 36 -126 121 -164 178
-15 24 -15 24 -32 -30z"/>
<path d="M5445 6174 c-79 -107 -184 -187 -298 -230 -198 -74 -290 -115 -366
-159 -171 -102 -249 -203 -238 -308 3 -29 13 -67 23 -86 17 -34 129 -151 144
-151 5 0 20 25 34 56 55 120 159 237 286 323 73 50 91 58 55 26 -128 -114
-201 -202 -241 -290 -30 -64 -34 -143 -10 -180 l16 -25 73 27 c305 109 505
302 575 555 24 87 21 315 -5 412 l-19 69 -29 -39z"/>
<path d="M909 5638 c-15 -227 65 -461 205 -601 101 -101 271 -191 416 -221 14
-3 36 -7 50 -11 23 -5 71 -11 148 -19 39 -4 50 12 48 69 -5 109 -132 237 -333
339 -29 14 -53 28 -53 31 0 3 28 -6 63 -19 174 -65 301 -152 387 -265 l34 -43
27 33 c110 134 115 278 14 367 -78 68 -254 137 -405 157 -25 3 -52 8 -60 10
-8 2 -47 7 -86 10 -129 10 -194 25 -269 63 -42 21 -139 85 -143 94 -2 5 -12
13 -23 18 -16 9 -19 7 -20 -12z"/>
<path d="M6140 5525 c-64 -49 -175 -102 -245 -119 -33 -8 -109 -18 -168 -21
-60 -4 -118 -8 -130 -10 -12 -2 -40 -6 -62 -10 -72 -10 -161 -34 -229 -59
-153 -58 -229 -147 -219 -261 3 -44 62 -172 91 -198 18 -16 21 -15 62 34 76
90 208 175 358 229 34 13 64 21 67 19 2 -3 -26 -20 -63 -39 -208 -106 -317
-221 -310 -328 l3 -47 63 -1 c34 -1 82 2 105 6 23 5 59 11 81 14 63 10 186 55
256 93 193 105 309 259 360 476 17 72 37 258 28 256 -1 0 -23 -16 -48 -34z"/>
<path d="M3601 5395 c-7 -41 -16 -77 -21 -80 -4 -3 -11 -17 -14 -32 -4 -14
-36 -63 -72 -107 -159 -197 -214 -353 -155 -436 23 -31 95 -68 142 -73 l36 -4
0 81 c0 45 2 95 6 113 9 42 58 175 63 170 2 -2 -4 -32 -14 -68 -37 -136 -24
-249 34 -286 20 -13 25 -10 69 49 162 215 179 442 46 630 -29 41 -96 118 -104
118 -1 0 -9 -34 -16 -75z"/>
<path d="M2821 5335 c-57 -83 -91 -205 -87 -309 6 -149 89 -292 239 -411 l48
-38 22 22 c18 18 22 33 22 89 0 59 -5 77 -45 157 -58 119 -58 119 -11 55 56
-76 92 -152 104 -227 7 -41 16 -63 24 -63 18 0 82 34 109 58 107 92 27 257
-213 438 -95 72 -144 135 -177 230 l-11 33 -24 -34z"/>
<path d="M4192 5265 c-41 -83 -77 -123 -175 -192 -150 -105 -255 -232 -262
-317 -6 -63 45 -126 129 -161 34 -15 36 -14 37 5 1 11 2 23 3 28 1 4 6 23 10
42 12 54 74 166 118 213 l38 42 -30 -46 c-65 -101 -98 -213 -78 -271 20 -62
29 -63 94 -15 195 144 279 334 237 535 -12 60 -64 185 -81 196 -5 3 -22 -24
-40 -59z"/>
<path d="M2255 5074 c-4 -16 -11 -44 -17 -61 -18 -59 -12 -202 11 -266 46
-134 148 -240 296 -313 50 -24 96 -44 103 -44 18 0 30 60 20 105 -11 50 -60
125 -124 189 -31 31 -40 44 -24 36 51 -27 165 -154 194 -217 l29 -62 38 30
c75 59 100 139 66 205 -36 69 -153 152 -302 213 -147 61 -185 88 -257 180
l-27 35 -6 -30z"/>
<path d="M4780 5032 c0 -14 -95 -104 -135 -127 -22 -13 -83 -39 -135 -59 -162
-60 -279 -137 -315 -207 -23 -43 -19 -101 10 -143 23 -34 74 -85 85 -86 3 0
18 25 34 56 32 60 95 132 161 181 71 53 71 49 4 -19 -87 -85 -122 -146 -123
-209 -1 -69 9 -75 86 -45 90 33 185 95 245 159 120 127 155 285 108 485 -5 20
-25 32 -25 14z"/>
<path d="M370 4852 c0 -19 59 -182 85 -232 94 -186 243 -312 440 -371 105 -32
302 -44 410 -25 17 3 48 8 70 12 56 8 64 18 55 61 -26 114 -178 208 -416 258
l-69 15 80 -5 c101 -6 134 -12 215 -35 76 -23 168 -69 223 -112 21 -17 42 -27
46 -22 20 21 51 139 51 189 0 67 -17 110 -59 153 -67 67 -170 94 -352 94 -111
-1 -133 -3 -289 -29 -177 -30 -282 -22 -430 36 -63 24 -60 23 -60 13z"/>
<path d="M5725 4725 c-146 -30 -215 -91 -228 -203 -4 -42 10 -129 33 -189 l12
-32 66 44 c107 71 241 110 412 120 l85 5 -105 -24 c-128 -29 -209 -59 -275
-101 -60 -39 -79 -59 -100 -108 -27 -66 -23 -74 53 -90 124 -28 307 -39 382
-22 14 3 39 8 55 10 89 16 211 71 291 131 64 48 104 93 163 180 47 70 121 237
121 274 0 19 -1 19 -43 1 -23 -10 -58 -22 -77 -27 -19 -4 -42 -9 -50 -11 -66
-16 -193 -14 -281 5 -51 11 -110 23 -129 26 -19 4 -46 8 -60 11 -59 12 -268
12 -325 0z"/>
<path d="M1778 4684 c-8 -7 1 -125 13 -179 31 -137 128 -262 252 -323 74 -37
203 -72 265 -72 42 0 42 0 42 35 0 20 -7 49 -15 64 -21 42 -114 122 -178 155
-31 15 -57 30 -57 32 0 7 84 -27 138 -56 63 -34 88 -55 144 -117 l37 -42 19
27 c88 125 69 214 -60 282 -44 24 -164 57 -233 65 -83 10 -128 16 -159 21 -39
7 -148 61 -179 90 -14 13 -27 21 -29 18z"/>
<path d="M5217 4585 c-68 -48 -142 -73 -238 -79 -46 -4 -94 -8 -105 -10 -12
-3 -39 -7 -60 -10 -133 -22 -241 -79 -265 -143 -20 -52 -1 -130 45 -188 15
-20 16 -19 53 20 43 46 93 84 142 110 36 18 141 56 141 51 0 -2 -30 -18 -67
-36 -89 -44 -177 -131 -187 -183 -11 -57 1 -65 76 -55 108 14 122 17 166 32
212 75 333 237 347 463 3 35 3 63 2 62 -1 0 -23 -15 -50 -34z"/>
<path d="M3983 4306 c-114 -54 -188 -134 -228 -245 -21 -62 -27 -184 -12 -261
10 -53 16 -66 33 -68 49 -7 104 71 136 193 l18 70 -5 -66 c-6 -74 -24 -133
-61 -196 l-25 -43 28 -11 c46 -18 117 -16 147 5 65 42 84 188 47 361 -22 101
-21 187 3 253 19 52 14 52 -81 8z"/>
<path d="M2870 4305 c0 -2 9 -25 20 -51 27 -62 35 -107 30 -174 -8 -116 -3
-277 9 -318 7 -24 27 -59 44 -79 28 -30 39 -35 78 -35 43 0 119 24 119 37 0 4
-11 21 -24 38 -13 18 -33 51 -45 74 -22 44 -56 172 -47 180 2 2 7 -11 11 -29
23 -102 107 -218 159 -218 31 0 38 27 35 134 -5 223 -123 375 -332 429 -31 8
-57 14 -57 12z"/>
<path d="M3434 4099 c-1 -97 -1 -98 -51 -197 -125 -245 -148 -392 -72 -470 30
-31 57 -40 131 -46 56 -5 61 2 43 69 -18 72 -19 168 -1 255 l14 65 -3 -90 c-4
-118 16 -202 57 -243 16 -18 37 -32 44 -32 24 0 97 164 110 250 25 149 -8 285
-93 392 -35 43 -141 135 -163 141 -13 3 -15 -11 -16 -94z"/>
<path d="M998 4164 c-2 -1 -21 -5 -44 -8 -102 -12 -273 -71 -426 -148 -43 -21
-106 -46 -140 -55 -66 -17 -215 -23 -281 -11 -47 9 -46 5 19 -93 54 -79 154
-184 220 -229 227 -157 533 -162 840 -14 65 31 71 36 66 60 -8 42 -71 99 -137
123 -79 30 -125 36 -275 35 l-125 0 55 14 c35 9 110 15 205 15 140 1 155 0
229 -26 63 -22 81 -25 88 -15 5 7 7 54 5 103 -4 119 -35 178 -113 222 -32 17
-175 38 -186 27z"/>
<path d="M1420 4155 c0 -2 9 -31 20 -65 58 -182 185 -303 362 -345 64 -15 228
-15 295 0 27 6 31 11 27 34 -7 36 -27 65 -67 95 -36 28 -155 76 -187 76 -11 0
-20 4 -20 8 0 13 117 -7 176 -29 28 -11 72 -33 98 -50 26 -17 48 -30 50 -28
17 18 34 87 33 132 -2 66 -27 98 -97 130 -62 28 -209 31 -358 8 -129 -21 -170
-19 -264 13 -38 12 -68 22 -68 21z"/>
<path d="M4968 4070 c-62 -11 -112 -39 -137 -77 -20 -31 -23 -45 -18 -93 3
-32 11 -69 19 -83 l14 -27 38 26 c36 25 125 61 171 70 11 2 47 6 80 8 53 4 56
3 25 -6 -202 -58 -261 -94 -272 -168 -3 -26 14 -33 102 -47 216 -32 403 36
516 189 40 55 103 193 92 203 -2 3 -27 -2 -54 -10 -90 -27 -161 -29 -272 -6
-109 23 -241 32 -304 21z"/>
<path d="M5915 4060 c-127 -28 -183 -111 -183 -272 l0 -86 31 10 c18 5 39 12
47 15 60 23 139 32 240 28 112 -4 145 -9 212 -29 39 -11 30 -12 -88 -8 -147 5
-248 -11 -319 -51 -41 -23 -85 -78 -85 -107 0 -22 160 -102 272 -134 114 -33
155 -39 268 -38 198 2 371 80 513 232 50 53 137 169 137 182 0 3 -46 5 -102 5
-167 -1 -218 12 -378 97 -234 122 -448 181 -565 156z"/>
<path d="M4333 3947 c-19 -69 -86 -134 -240 -233 -182 -116 -269 -180 -336
-248 -132 -133 -129 -249 9 -340 29 -20 56 -36 58 -36 2 0 12 24 21 53 39 121
87 204 176 301 50 55 134 124 98 80 -9 -10 -33 -54 -54 -96 -58 -119 -60 -240
-5 -306 l19 -23 68 47 c159 112 283 270 319 407 18 70 11 189 -16 259 -17 46
-94 178 -104 178 -1 0 -7 -20 -13 -43z"/>
<path d="M2573 3909 c-88 -128 -115 -241 -88 -370 31 -153 152 -312 327 -431
56 -38 60 -39 78 -23 69 62 52 235 -36 372 l-35 55 42 -34 c102 -81 229 -272
244 -368 4 -19 10 -39 14 -43 12 -12 80 25 118 65 135 141 35 290 -363 538
-142 89 -234 176 -256 239 l-14 45 -31 -45z"/>
<path d="M1750 3679 c-40 -11 -109 -35 -154 -55 -155 -70 -184 -77 -283 -77
l-93 1 39 -56 c125 -184 295 -260 506 -228 84 13 245 75 245 95 0 9 -39 62
-55 74 -30 22 -127 40 -213 39 -52 0 -92 1 -90 3 2 2 26 7 53 11 79 12 216 7
264 -10 69 -25 69 -25 66 55 -4 80 -30 130 -79 150 -44 19 -127 18 -206 -2z"/>
<path d="M5070 3624 c-67 -25 -100 -75 -101 -156 -2 -82 -4 -79 44 -61 48 19
240 23 292 6 24 -8 11 -10 -66 -10 -52 0 -106 -4 -120 -7 -59 -17 -97 -40
-114 -68 -18 -31 -18 -32 4 -49 35 -28 174 -78 248 -89 204 -28 371 47 491
223 l33 47 -76 0 c-91 0 -75 -2 -136 16 -29 9 -68 26 -88 38 -43 26 -136 68
-206 91 -51 17 -178 29 -205 19z"/>
<path d="M899 3483 c-128 -32 -280 -128 -474 -298 -64 -56 -74 -63 -116 -88
-55 -32 -178 -74 -244 -82 -27 -4 -52 -9 -55 -12 -11 -11 134 -127 229 -183
145 -84 347 -113 511 -71 151 38 313 129 433 240 26 24 47 47 47 52 0 13 -48
57 -83 76 -25 14 -55 18 -142 17 -110 -1 -208 -21 -317 -67 -51 -21 -48 -13 5
15 157 83 265 112 415 112 128 0 124 -3 98 91 -45 170 -150 238 -307 198z"/>
<path d="M5997 3389 c-91 -14 -152 -75 -190 -189 -8 -25 -17 -57 -18 -73 l-4
-27 115 -4 c129 -4 202 -23 335 -86 92 -44 148 -82 80 -54 -22 9 -47 20 -56
24 -9 5 -63 20 -120 34 -171 43 -299 26 -349 -45 l-20 -28 22 -23 c120 -124
306 -240 448 -278 78 -21 83 -22 180 -25 182 -6 364 67 534 214 l46 40 -37 6
c-106 18 -237 69 -302 118 -18 14 -63 54 -100 89 -175 167 -354 282 -472 303
-18 3 -35 7 -38 9 -3 1 -28 -1 -54 -5z"/>
<path d="M1784 3249 c-80 -14 -205 -91 -324 -198 -56 -51 -125 -86 -214 -108
l-68 -16 33 -29 c69 -59 155 -109 222 -130 163 -49 365 7 516 142 38 35 41 40
29 59 -7 11 -26 27 -43 35 -41 20 -162 14 -242 -12 -35 -11 -63 -18 -63 -15 0
9 115 54 173 68 33 8 87 13 120 11 l59 -3 -6 45 c-15 112 -88 169 -192 151z"/>
<path d="M5116 3180 c-15 -5 -37 -17 -48 -27 -23 -20 -53 -84 -61 -129 l-6
-32 59 0 c78 0 150 -17 238 -58 74 -35 101 -57 35 -28 -142 60 -282 61 -332 1
-10 -13 -3 -24 39 -64 179 -172 407 -216 604 -117 63 32 146 94 146 110 0 6
-18 14 -40 17 -67 9 -161 60 -236 129 -176 161 -307 227 -398 198z"/>
<path d="M3861 3013 c-97 -179 -182 -397 -216 -558 -19 -90 -32 -168 -40 -250
-7 -58 -7 -273 -1 -325 3 -25 8 -65 10 -90 10 -97 65 -326 103 -423 31 -81
103 -243 134 -302 147 -282 383 -584 640 -821 68 -62 71 -60 27 13 -65 107
-145 284 -163 363 -63 267 -59 454 14 665 72 205 190 385 375 571 75 74 192
172 264 219 23 15 42 29 42 31 0 3 -46 -10 -85 -26 -39 -15 -218 -58 -275 -66
-399 -55 -672 140 -760 545 -28 127 -34 189 -34 359 0 83 -1 152 -2 152 -1 0
-16 -25 -33 -57z"/>
<path d="M3055 2882 c0 -184 -8 -262 -41 -391 -120 -478 -487 -631 -1049 -435
-38 13 -65 20 -60 16 6 -5 54 -41 108 -81 222 -166 423 -404 526 -625 32 -69
79 -213 86 -266 3 -25 8 -58 11 -75 11 -62 6 -223 -10 -312 -27 -155 -102
-350 -188 -484 -19 -29 -38 -61 -43 -69 -35 -58 272 249 372 371 211 260 365
523 463 788 31 85 85 278 94 341 3 19 8 46 11 59 9 47 19 196 19 291 -1 244
-47 474 -141 710 -39 100 -133 291 -152 312 -3 4 -6 -64 -6 -150z"/>
<path d="M4414 2899 c-22 -4 -61 -17 -85 -28 -259 -122 -285 -478 -47 -631
241 -156 557 14 559 300 1 225 -207 400 -427 359z"/>
<path d="M2384 2861 c-227 -58 -342 -328 -226 -531 133 -234 467 -246 616 -21
45 68 59 118 59 206 -1 139 -82 264 -210 322 -62 28 -177 40 -239 24z"/>
<path d="M5850 2620 c-60 -53 -145 -76 -287 -80 -211 -5 -323 -14 -428 -36
-153 -31 -231 -98 -228 -194 2 -48 41 -151 62 -164 6 -4 38 17 72 48 74 66
193 127 306 155 109 28 118 26 54 -9 -146 -81 -228 -196 -213 -299 4 -24 4
-24 95 -17 310 22 527 165 586 386 13 52 19 150 11 198 l-5 34 -25 -22z"/>
<path d="M1072 2594 c-3 -43 -2 -163 3 -185 17 -90 64 -176 132 -243 94 -92
304 -169 490 -179 69 -4 74 1 67 67 -8 85 -78 171 -199 244 -73 45 -68 47 45
17 129 -33 240 -93 321 -172 l46 -45 21 34 c24 40 52 121 52 151 0 12 -9 41
-19 64 -27 59 -124 112 -233 128 -23 4 -45 8 -48 10 -8 5 -161 15 -316 20 -77
3 -149 7 -160 9 -66 13 -115 32 -155 61 -31 22 -46 28 -47 19z"/>
<path d="M4380 1250 c-1 -19 -3 -44 -6 -55 -2 -11 -6 -47 -9 -80 -3 -33 -7
-71 -10 -85 -7 -38 46 -79 200 -153 78 -38 191 -79 251 -92 11 -2 50 -11 88
-20 38 -9 88 -18 110 -20 23 -3 52 -7 66 -9 14 -3 52 -8 85 -11 l60 -5 -75 33
c-91 41 -296 143 -365 182 -167 94 -332 231 -373 310 l-21 40 -1 -35z"/>
<path d="M2521 1052 c-44 -106 -287 -280 -596 -427 -208 -99 -223 -106 -200
-101 11 3 52 8 90 11 39 3 77 7 85 10 8 2 35 7 59 10 175 25 445 125 551 204
59 44 62 49 56 89 -5 37 -12 97 -21 181 -6 55 -9 59 -24 23z"/>
</g>
</svg>
